<svg xmlns="http://www.w3.org/2000/svg" viewBox="0 0 400 300" width="400" height="300">
  <!-- Sky Background -->
  <rect width="400" height="300" fill="#87CEEB"/>
  
  <!-- Ground -->
  <rect y="250" width="400" height="50" fill="#7CFC00"/>
  
  <!-- Bicycle Frame -->
  <path d="M100 200 Q150 140 200 140 Q250 140 300 200" stroke="#333" stroke-width="5" fill="none"/>
  <path d="M200 140 L220 180" stroke="#333" stroke-width="5"/>
  
  <!-- Wheels -->
  <circle cx="100" cy="200" r="40" stroke="#333" stroke-width="5" fill="none"/>
  <circle cx="300" cy="200" r="40" stroke="#333" stroke-width="5" fill="none"/>
  
  <!-- Wheel Spokes -->
  <g stroke="#999" stroke-width="2">
    <line x1="100" y1="200" x2="125" y2="165"/>
    <line x1="100" y1="200" x2="135" y2="210"/>
    <line x1="100" y1="200" x2="110" y2="235"/>
    <line x1="100" y1="200" x2="75" y2="235"/>
    <line x1="300" y1="200" x2="325" y2="165"/>
    <line x1="300" y1="200" x2="335" y2="210"/>
    <line x1="300" y1="200" x2="310" y2="235"/>
    <line x1="300" y1="200" x2="275" y2="235"/>
  </g>
  
  <!-- Handlebars -->
  <path d="M220 180 Q240 150 250 170" stroke="#333" stroke-width="5" fill="none"/>
  
  <!-- Seat -->
  <path d="M200 140 Q190 130 180 135" stroke="#333" stroke-width="5" fill="none"/>
  
  <!-- Pedals -->
  <circle cx="180" cy="180" r="15" stroke="#333" stroke-width="3" fill="#777"/>
  <circle cx="180" cy="180" r="5" fill="#333"/>
  
  <!-- Pelican Body -->
  <ellipse cx="220" cy="150" rx="30" ry="25" fill="white" stroke="#333" stroke-width="2"/>
  
  <!-- Pelican Head -->
  <circle cx="250" cy="130" r="20" fill="white" stroke="#333" stroke-width="2"/>
  
  <!-- Pelican Beak -->
  <path d="M270 130 Q320 110 330 140 Q320 170 270 140 Z" fill="#FFA500" stroke="#333" stroke-width="2"/>
  
  <!-- Pelican Eye -->
  <circle cx="255" cy="125" r="3" fill="#333"/>
  
  <!-- Pelican Legs -->
  <path d="M210 170 L210 200 L190 220" stroke="#333" stroke-width="3" fill="none"/>
  <path d="M230 170 L230 200 L250 220" stroke="#333" stroke-width="3" fill="none"/>
  
  <!-- Pelican Feet -->
  <circle cx="190" cy="220" r="5" fill="#FFA500"/>
  <circle cx="250" cy="220" r="5" fill="#FFA500"/>
  
  <!-- Pelican Wing -->
  <path d="M190 150 Q170 140 160 160 Q170 180 190 170 Z" fill="white" stroke="#333" stroke-width="2"/>
  
  <!-- Sun -->
  <circle cx="350" cy="50" r="30" fill="#FFD700"/>
</svg>