<svg viewBox="0 0 400 300" xmlns="http://www.w3.org/2000/svg">
  <!-- Background -->
  <rect width="400" height="300" fill="#87CEEB"/>
  
  <!-- Ground line -->
  <line x1="0" y1="250" x2="400" y2="250" stroke="#90EE90" stroke-width="3"/>
  
  <!-- Bicycle -->
  <!-- Rear wheel -->
  <circle cx="120" cy="230" r="20" fill="none" stroke="#333" stroke-width="3"/>
  <circle cx="120" cy="230" r="3" fill="#333"/>
  <line x1="120" y1="210" x2="120" y2="250" stroke="#333" stroke-width="2"/>
  <line x1="100" y1="230" x2="140" y2="230" stroke="#333" stroke-width="2"/>
  
  <!-- Front wheel -->
  <circle cx="220" cy="230" r="20" fill="none" stroke="#333" stroke-width="3"/>
  <circle cx="220" cy="230" r="3" fill="#333"/>
  <line x1="220" y1="210" x2="220" y2="250" stroke="#333" stroke-width="2"/>
  <line x1="200" y1="230" x2="240" y2="230" stroke="#333" stroke-width="2"/>
  
  <!-- Bicycle frame -->
  <line x1="120" y1="230" x2="170" y2="180" stroke="#333" stroke-width="4"/>
  <line x1="170" y1="180" x2="220" y2="230" stroke="#333" stroke-width="4"/>
  <line x1="170" y1="180" x2="170" y2="160" stroke="#333" stroke-width="4"/>
  <line x1="170" y1="180" x2="200" y2="180" stroke="#333" stroke-width="4"/>
  
  <!-- Seat -->
  <ellipse cx="170" cy="160" rx="15" ry="8" fill="#8B4513"/>
  
  <!-- Handlebars -->
  <line x1="200" y1="180" x2="210" y2="170" stroke="#333" stroke-width="3"/>
  <path d="M 205 165 Q 210 170 215 165" fill="none" stroke="#333" stroke-width="3"/>
  
  <!-- Pedals -->
  <circle cx="170" cy="180" r="3" fill="#333"/>
  <line x1="165" y1="180" x2="175" y2="180" stroke="#333" stroke-width="3"/>
  <line x1="170" y1="175" x2="170" y2="185" stroke="#333" stroke-width="3"/>
  
  <!-- Pelican -->
  <!-- Body -->
  <ellipse cx="170" cy="140" rx="35" ry="25" fill="#F5F5DC"/>
  
  <!-- Neck -->
  <path d="M 150 130 Q 140 110 135 95" fill="none" stroke="#F5F5DC" stroke-width="20"/>
  
  <!-- Head -->
  <ellipse cx="135" cy="85" rx="20" ry="18" fill="#F5F5DC"/>
  
  <!-- Beak -->
  <path d="M 115 85 L 85 88 L 115 91 Z" fill="#FFA500"/>
  <!-- Pouch -->
  <path d="M 85 88 Q 80 95 85 102" fill="none" stroke="#FF8C00" stroke-width="2"/>
  
  <!-- Eye -->
  <circle cx="130" cy="80" r="4" fill="#000"/>
  <circle cx="131" cy="79" r="1.5" fill="#FFF"/>
  
  <!-- Wing -->
  <path d="M 185 135 Q 210 125 215 140 Q 210 150 185 145" fill="#E0E0E0"/>
  
  <!-- Legs on pedals -->
  <line x1="165" y1="160" x2="165" y2="180" stroke="#FFA500" stroke-width="4"/>
  <line x1="175" y1="160" x2="175" y2="180" stroke="#FFA500" stroke-width="4"/>
  
  <!-- Feet -->
  <ellipse cx="165" cy="180" rx="6" ry="4" fill="#FFA500"/>
  <ellipse cx="175" cy="180" rx="6" ry="4" fill="#FFA500"/>
  
  <!-- Motion lines -->
  <path d="M 250 140 L 260 140" stroke="#666" stroke-width="2" opacity="0.5"/>
  <path d="M 255 150 L 265 150" stroke="#666" stroke-width="2" opacity="0.5"/>
  <path d="M 245 160 L 255 160" stroke="#666" stroke-width="2" opacity="0.5"/>
  
  <!-- Shadow -->
  <ellipse cx="170" cy="245" rx="40" ry="8" fill="#000" opacity="0.2"/>
</svg>