<svg viewBox="0 0 400 300" xmlns="http://www.w3.org/2000/svg">
  <!-- Bicycle Frame -->
  <g id="bicycle">
    <!-- Main Triangle Frame -->
    <path d="M150 180 L200 140 L250 180 Z" fill="none" stroke="#333" stroke-width="4" stroke-linejoin="round"/>
    <!-- Seat Tube -->
    <line x1="200" y1="140" x2="200" y2="180" stroke="#333" stroke-width="4"/>
    <!-- Rear Wheel -->
    <circle cx="150" cy="220" r="40" fill="none" stroke="#333" stroke-width="3"/>
    <circle cx="150" cy="220" r="35" fill="none" stroke="#333" stroke-width="1"/>
    <!-- Front Wheel -->
    <circle cx="250" cy="220" r="40" fill="none" stroke="#333" stroke-width="3"/>
    <circle cx="250" cy="220" r="35" fill="none" stroke="#333" stroke-width="1"/>
    <!-- Spokes -->
    <g id="wheel-spokes">
      <line x1="150" y1="220" x2="150" y2="180" stroke="#333" stroke-width="1"/>
      <line x1="150" y1="220" x2="185" y2="205" stroke="#333" stroke-width="1"/>
      <line x1="150" y1="220" x2="185" y2="235" stroke="#333" stroke-width="1"/>
      <line x1="150" y1="220" x2="115" y2="235" stroke="#333" stroke-width="1"/>
      <line x1="150" y1="220" x2="115" y2="205" stroke="#333" stroke-width="1"/>
      
      <line x1="250" y1="220" x2="250" y2="180" stroke="#333" stroke-width="1"/>
      <line x1="250" y1="220" x2="285" y2="205" stroke="#333" stroke-width="1"/>
      <line x1="250" y1="220" x2="285" y2="235" stroke="#333" stroke-width="1"/>
      <line x1="250" y1="220" x2="215" y2="235" stroke="#333" stroke-width="1"/>
      <line x1="250" y1="220" x2="215" y2="205" stroke="#333" stroke-width="1"/>
    </g>
    <!-- Handlebars -->
    <line x1="200" y1="140" x2="220" y2="120" stroke="#333" stroke-width="4"/>
    <line x1="210" y1="120" x2="230" y2="120" stroke="#333" stroke-width="3"/>
    <!-- Pedals -->
    <ellipse cx="200" cy="180" rx="8" ry="3" fill="#666"/>
    <line x1="192" y1="180" x2="208" y2="180" stroke="#333" stroke-width="2"/>
    <!-- Chain -->
    <path d="M192 180 L170 200 L170 220" fill="none" stroke="#333" stroke-width="2"/>
  </g>
  
  <!-- Pelican -->
  <g id="pelican">
    <!-- Body -->
    <ellipse cx="200" cy="130" rx="45" ry="35" fill="#E8E8E8" stroke="#333" stroke-width="2"/>
    
    <!-- Neck -->
    <path d="M180 115 Q170 90 165 70" fill="none" stroke="#333" stroke-width="3"/>
    
    <!-- Head -->
    <ellipse cx="160" cy="65" rx="25" ry="20" fill="#E8E8E8" stroke="#333" stroke-width="2"/>
    
    <!-- Beak -->
    <path d="M135 65 L120 65 L110 70 L120 75 Z" fill="#FFA500" stroke="#333" stroke-width="2"/>
    <path d="M110 70 Q105 72 105 75 Q105 78 110 80" fill="none" stroke="#333" stroke-width="2"/>
    
    <!-- Eye -->
    <circle cx="150" cy="60" r="3" fill="#333"/>
    <circle cx="151" cy="59" r="1" fill="white"/>
    
    <!-- Wings -->
    <ellipse cx="175" cy="125" rx="30" ry="20" fill="#F0F0F0" stroke="#333" stroke-width="2" transform="rotate(-20 175 125)"/>
    <ellipse cx="225" cy="125" rx="30" ry="20" fill="#F0F0F0" stroke="#333" stroke-width="2" transform="rotate(20 225 125)"/>
    
    <!-- Tail -->
    <path d="M240 135 Q255 140 250 150" fill="none" stroke="#333" stroke-width="2"/>
    
    <!-- Legs on pedals -->
    <line x1="190" y1="155" x2="195" y2="175" stroke="#FFA500" stroke-width="3"/>
    <line x1="210" y1="155" x2="205" y2="175" stroke="#FFA500" stroke-width="3"/>
    
    <!-- Feet on pedals -->
    <path d="M195 175 L190 180 L200 180 Z" fill="#FFA500" stroke="#333" stroke-width="1"/>
    <path d="M205 175 L200 180 L210 180 Z" fill="#FFA500" stroke="#333" stroke-width="1"/>
  </g>
  
  <!-- Motion lines -->
  <path d="M100 100 L90 95 M100 110 L85 108 M100 120 L90 115" stroke="#999" stroke-width="2" stroke-linecap="round" opacity="0.5"/>
</svg>