<svg viewBox="0 0 400 300" xmlns="http://www.w3.org/2000/svg">
  <!-- Bicycle Frame -->
  <g id="bicycle">
    <!-- Rear Wheel -->
    <circle cx="120" cy="220" r="35" fill="none" stroke="#333" stroke-width="3"/>
    <circle cx="120" cy="220" r="25" fill="none" stroke="#666" stroke-width="2"/>
    <circle cx="120" cy="220" r="5" fill="#333"/>
    
    <!-- Front Wheel -->
    <circle cx="280" cy="220" r="35" fill="none" stroke="#333" stroke-width="3"/>
    <circle cx="280" cy="220" r="25" fill="none" stroke="#666" stroke-width="2"/>
    <circle cx="280" cy="220" r="5" fill="#333"/>
    
    <!-- Main Frame -->
    <path d="M 120 220 L 180 160 L 240 160 L 280 220" fill="none" stroke="#333" stroke-width="3"/>
    <path d="M 180 160 L 180 120" fill="none" stroke="#333" stroke-width="3"/>
    
    <!-- Seat Post -->
    <path d="M 180 120 L 180 100" fill="none" stroke="#333" stroke-width="3"/>
    <ellipse cx="180" cy="95" rx="15" ry="5" fill="#333"/>
    
    <!-- Handlebars -->
    <path d="M 240 160 L 260 140" fill="none" stroke="#333" stroke-width="3"/>
    <path d="M 245 140 L 275 140" fill="none" stroke="#333" stroke-width="3"/>
    
    <!-- Pedals -->
    <circle cx="180" cy="160" r="8" fill="#666"/>
    <path d="M 172 160 L 188 160" stroke="#333" stroke-width="2"/>
    <path d="M 180 152 L 180 168" stroke="#333" stroke-width="2"/>
  </g>
  
  <!-- Pelican -->
  <g id="pelican">
    <!-- Body -->
    <ellipse cx="200" cy="140" rx="45" ry="35" fill="#f0f0f0" stroke="#333" stroke-width="2"/>
    
    <!-- Head -->
    <ellipse cx="240" cy="110" rx="30" ry="25" fill="#f0f0f0" stroke="#333" stroke-width="2"/>
    
    <!-- Beak -->
    <path d="M 265 110 L 310 108 L 315 112 L 310 116 L 265 114 Z" fill="#ffa500" stroke="#333" stroke-width="2"/>
    <!-- Pouch -->
    <path d="M 285 108 Q 295 114 285 116" fill="none" stroke="#ff8c00" stroke-width="2"/>
    
    <!-- Eye -->
    <circle cx="250" cy="105" r="5" fill="#333"/>
    <circle cx="252" cy="103" r="2" fill="white"/>
    
    <!-- Wing (on handlebar) -->
    <path d="M 200 130 Q 240 125 260 140" fill="none" stroke="#333" stroke-width="2"/>
    <path d="M 210 135 Q 240 132 255 142" fill="#e0e0e0" stroke="#333" stroke-width="1"/>
    
    <!-- Wing (back) -->
    <path d="M 160 130 Q 140 120 130 130" fill="none" stroke="#333" stroke-width="2"/>
    <path d="M 160 135 Q 145 128 135 135" fill="#e0e0e0" stroke="#333" stroke-width="1"/>
    
    <!-- Legs -->
    <line x1="190" y1="170" x2="185" y2="195" stroke="#ffa500" stroke-width="3"/>
    <line x1="210" y1="170" x2="215" y2="195" stroke="#ffa500" stroke-width="3"/>
    
    <!-- Webbed Feet on Pedals -->
    <path d="M 175 195 L 185 195 L 180 200 Z" fill="#ffa500" stroke="#333" stroke-width="1"/>
    <path d="M 210 195 L 220 195 L 215 200 Z" fill="#ffa500" stroke="#333" stroke-width="1"/>
    
    <!-- Tail -->
    <path d="M 155 140 L 140 145 L 145 150 Z" fill="#e0e0e0" stroke="#333" stroke-width="1"/>
  </g>
  
  <!-- Motion Lines -->
  <g id="motion" opacity="0.5">
    <path d="M 80 180 Q 70 180 60 180" fill="none" stroke="#666" stroke-width="2"/>
    <path d="M 85 190 Q 75 190 65 190" fill="none" stroke="#666" stroke-width="2"/>
    <path d="M 320 180 Q 330 180 340 180" fill="none" stroke="#666" stroke-width="2"/>
    <path d="M 315 190 Q 325 190 335 190" fill="none" stroke="#666" stroke-width="2"/>
  </g>
</svg>