<svg width="300" height="300" viewBox="0 0 300 300" xmlns="http://www.w3.org/2000/svg">
  <!-- Bicycle Wheels -->
  <circle cx="80" cy="200" r="30" fill="black"/>
  <circle cx="150" cy="200" r="30" fill="black"/>
  <!-- Wheel Spokes -->
  <line x1="80" y1="200" x2="80" y2="170" stroke="white" stroke-width="2"/>
  <line x1="80" y1="200" x2="80" y2="230" stroke="white" stroke-width="2"/>
  <line x1="50" y1="200" x2="110" y2="200" stroke="white" stroke-width="2"/>
  <line x1="150" y1="200" x2="150" y2="170" stroke="white" stroke-width="2"/>
  <line x1="150" y1="200" x2="150" y2="230" stroke="white" stroke-width="2"/>
  <line x1="120" y1="200" x2="180" y2="200" stroke="white" stroke-width="2"/>

  <!-- Bicycle Frame -->
  <line x1="80" y1="200" x2="115" y2="170" stroke="black" stroke-width="5"/>
  <line x1="115" y1="170" x2="150" y2="130" stroke="black" stroke-width="5"/>
  <line x1="150" y1="130" x2="150" y2="200" stroke="black" stroke-width="5"/>
  <line x1="80" y1="200" x2="150" y2="200" stroke="black" stroke-width="5"/>

  <!-- Handlebars -->
  <line x1="150" y1="130" x2="150" y2="100" stroke="black" stroke-width="3"/>
  <line x1="140" y1="100" x2="160" y2="100" stroke="black" stroke-width="3"/>
  <circle cx="140" cy="100" r="3" fill="black"/>
  <circle cx="160" cy="100" r="3" fill="black"/>

  <!-- Pedals -->
  <line x1="115" y1="210" x2="135" y2="210" stroke="black" stroke-width="3"/>
  <circle cx="115" cy="210" r="5" fill="black"/>
  <circle cx="135" cy="210" r="5" fill="black"/>

  <!-- Pelican Body -->
  <ellipse cx="100" cy="80" rx="30" ry="20" fill="white" stroke="black" stroke-width="2"/>
  <!-- Pelican Head -->
  <circle cx="130" cy="70" r="15" fill="white" stroke="black" stroke-width="2"/>
  <!-- Pelican Beak -->
  <polygon points="130,70 160,95 130,110" fill="orange" stroke="black" stroke-width="1"/>
  <!-- Pelican Wing -->
  <polygon points="70,80 50,100 80,110" fill="white" stroke="black" stroke-width="1"/>
  <!-- Pelican Tail -->
  <polygon points="60,85 50,95 60,105" fill="white" stroke="black" stroke-width="1"/>
  <!-- Pelican Eyes -->
  <circle cx="135" cy="65" r="2" fill="black"/>

  <!-- Pelican Legs -->
  <line x1="90" y1="100" x2="115" y2="210" stroke="orange" stroke-width="3"/>
  <line x1="110" y1="100" x2="135" y2="210" stroke="orange" stroke-width="3"/>
  <!-- Pelican Feet -->
  <circle cx="115" cy="215" r="5" fill="orange"/>
  <circle cx="135" cy="215" r="5" fill="orange"/>
  <polygon points="110,215 115,220 120,215" fill="orange"/>
  <polygon points="130,215 135,220 140,215" fill="orange"/>
</svg>