<svg width="500" height="300" xmlns="http://www.w3.org/2000/svg">
  <!-- Background -->
  <rect width="100%" height="100%" fill="#87CEEB"/>

  <!-- Sun -->
  <circle cx="420" cy="60" r="40" fill="#FFD700"/>

  <!-- Clouds -->
  <g fill="white">
    <circle cx="80" cy="50" r="20"/>
    <circle cx="100" cy="45" r="25"/>
    <circle cx="120" cy="50" r="20"/>
  </g>

  <!-- Ground -->
  <rect y="220" width="100%" height="80" fill="#90EE90"/>

  <!-- Road -->
  <rect y="250" width="100%" height="20" fill="#333"/>

  <!-- Bicycle -->
  <g stroke="black" stroke-width="4" fill="none">
    <!-- Wheels -->
    <circle cx="120" cy="220" r="40"/>
    <circle cx="320" cy="220" r="40"/>
    <!-- Frame -->
    <polyline points="120,220 180,180 260,180 320,220"/>
    <polyline points="180,180 220,220 260,180"/>
    <!-- Handlebars -->
    <line x1="260" y1="180" x2="280" y2="150"/>
    <line x1="280" y1="150" x2="300" y2="150"/>
    <!-- Seat -->
    <line x1="220" y1="220" x2="220" y2="190"/>
    <line x1="220" y1="190" x2="235" y2="185"/>
  </g>

  <!-- Pelican -->
  <g>
    <!-- Body -->
    <ellipse cx="250" cy="160" rx="40" ry="30" fill="#F5F5DC"/>
    <!-- Head -->
    <circle cx="290" cy="140" r="20" fill="#F5F5DC"/>
    <!-- Beak -->
    <path d="M290,140 L325,140 Q330,138 330,140 Q330,142 325,142 Z" fill="#FFA500"/>
    <!-- Eye -->
    <circle cx="298" cy="135" r="3" fill="black"/>
    <!-- Neck -->
    <ellipse cx="265" cy="150" rx="12" ry="15" fill="#F5F5DC"/>
    <!-- Tail -->
    <path d="M210,160 Q190,150 190,170 Q190,190 210,180 Z" fill="#F5F5DC"/>
    <!-- Legs (pedaling) -->
    <line x1="230" y1="210" x2="240" y2="250" stroke="black" stroke-width="4"/>
    <line x1="250" y1="210" x2="270" y2="250" stroke="black" stroke-width="4"/>
    <!-- Wings -->
    <path d="M220,150 Q200,130 190,150 Q200,170 220,160 Z" fill="#E6E6B8"/>
  </g>

  <!-- Wheels details -->
  <g stroke="black" stroke-width="2">
    <circle cx="120" cy="220" r="25"/>
    <circle cx="120" cy="220" r="10"/>
    <line x1="120" y1="180" x2="120" y2="260"/>
    <line x1="80" y1="220" x2="160" y2="220"/>
    <line x1="95" y1="195" x2="145" y2="245"/>
    <line x1="145" y1="195" x2="95" y2="245"/>

    <circle cx="320" cy="220" r="25"/>
    <circle cx="320" cy="220" r="10"/>
    <line x1="320" y1="180" x2="320" y2="260"/>
    <line x1="280" y1="220" x2="360" y2="220"/>
    <line x1="295" y1="195" x2="345" y2="245"/>
    <line x1="345" y1="195" x2="295" y2="245"/>
  </g>

  <!-- Pedals -->
  <circle cx="240" cy="250" r="5" fill="gray"/>
  <circle cx="270" cy="250" r="5" fill="gray"/>
</svg>