<svg width="400" height="300" xmlns="http://www.w3.org/2000/svg">
  <!-- Bicycle Wheels -->
  <circle cx="100" cy="200" r="40" fill="black"/>
  <circle cx="250" cy="200" r="40" fill="black"/>
  
  <!-- Bicycle Frame -->
  <path d="M100 200 L175 150 L250 200" stroke="black" stroke-width="5" fill="none"/>
  
  <!-- Handlebars -->
  <line x1="100" y1="200" x2="110" y2="150" stroke="black" stroke-width="3"/>
  <line x1="110" y1="150" x2="140" y2="150" stroke="black" stroke-width="3"/>
  
  <!-- Seat -->
  <rect x="170" y="150" width="20" height="30" fill="black"/>
  
  <!-- Pedals -->
  <circle cx="90" cy="200" r="5" fill="orange"/>
  <circle cx="110" cy="200" r="5" fill="orange"/>
  
  <!-- Pelican Body -->
  <ellipse cx="170" cy="130" rx="50" ry="30" fill="white" stroke="black"/>
  
  <!-- Pelican Head -->
  <circle cx="200" cy="110" r="20" fill="white" stroke="black"/>
  
  <!-- Pelican Beak -->
  <polygon points="200,110 240,120 200,130" fill="orange" stroke="black"/>
  
  <!-- Pelican Wings -->
  <polygon points="120,130 140,100 160,130" fill="white" stroke="black"/>
  <polygon points="220,130 240,100 260,130" fill="white" stroke="black"/>
  
  <!-- Pelican Legs -->
  <line x1="160" y1="160" x2="90" y2="200" stroke="black" stroke-width="3"/>
  <line x1="180" y1="160" x2="110" y2="200" stroke="black" stroke-width="3"/>
  
  <!-- Pelican Feet -->
  <circle cx="90" cy="200" r="5" fill="orange"/>
  <circle cx="110" cy="200" r="5" fill="orange"/>
  
  <!-- Pelican Eye -->
  <circle cx="210" cy="105" r="3" fill="black"/>
</svg>